<svg viewBox="0 0 151 89" version="1.1" xmlns="http://www.w3.org/2000/svg" xmlns:xlink="http://www.w3.org/1999/xlink" style="fill:#adb95e">
<path d="M76,0 C77.8,9.4 78.6,19.2 79,29 L79.3,39.6 C79.3,55 78.4,69.9 75.6,84 L75.2,84 C71.5,63.4 70.9,40.3 72.7,18.6 C73.3,12.3 74.1,6 75.6,0 L76,0 Z" id="Path"></path>
<path d="M47.6,4.3 C54.1,17.1 59.1,30.6 63.3,44.4 C67.1,57.4 70.4,70.7 71.8,84.7 C71.5,85 71.3,84.6 71.2,84.4 C61.8,65.8 55.2,46 50.4,25.4 C48.9,18.6 47.6,11.7 47.2,4.4 C47.4,4.3 47.5,4.3 47.6,4.3 Z" id="Path"></path>
<path d="M102.8,4.3 C102.6,11.4 101.2,18.2 99.8,24.9 C94.9,45.8 88.4,65.9 78.7,84.8 L78.4,84.7 C80,69 83.8,54.2 88.3,39.7 L91.5,30.1 L95,20.8 C97.3,15.2 99.6,9.6 102.5,4.3 L102.8,4.3 Z" id="Path"></path>
<path d="M40,38.2 L46.1,46.8 L51.8,55.4 C58,65.2 63.6,75.2 68,85.7 L67.7,85.9 C61.8,79.9 56.5,73.5 51.5,67.1 L45.5,58.9 C36.4,45.8 27.8,32.5 21.9,18.1 L21,16 L21.3,15.9 C28.3,22.9 34.3,30.5 40,38.2 Z" id="Path"></path>
<path d="M129.1,16 C126.5,23.5 122.6,30.5 118.7,37.4 L113.5,45.9 C108.5,53.8 103.1,61.5 97.2,68.9 L90.9,76.6 C88.2,79.7 85.4,82.8 82.4,85.9 C82.3,85.8 82.2,85.8 82.1,85.7 C88.7,69.9 97.8,55.1 108.1,40.7 L114.1,32.6 C118.6,26.9 123.3,21.2 128.6,15.8 L129.1,16 Z" id="Path"></path>
<path d="M18.5,46.5 L26.9,52.6 L35.2,59.1 L42.2,65 L49.8,71.8 C55.4,77 60.7,82.6 65.4,88.2 C65.4,88.3 65.3,88.4 65.2,88.5 C58.4,84.8 51.9,80.6 45.4,76.1 L37.2,70.1 L30.2,64.6 L22.4,58.1 L14.4,51 C9.3,46.1 4,40.9 -1.42108547e-14,35.3 L0.2,35 C6.5,38.3 12.5,42.4 18.5,46.5 Z" id="Path"></path>
<path d="M150.1,35.3 C143.8,43.8 135.2,51.6 127.2,58.7 C113.8,70.2 99.8,80.4 85,88.5 L84.8,88.3 C93.1,78.2 103.3,68.7 113.3,60.5 L121.9,53.7 L130.4,47.5 C136.7,43 143.2,38.8 149.9,35.1 L150.1,35.3 Z" id="Path"></path>
</svg>